<?xml version="1.0" standalone="no"?>
<!DOCTYPE svg PUBLIC "-//W3C//DTD SVG 20010904//EN"
 "http://www.w3.org/TR/2001/REC-SVG-20010904/DTD/svg10.dtd">
<svg version="1.0" xmlns="http://www.w3.org/2000/svg"
 width="588.000000pt" height="980.000000pt" viewBox="0 0 588.000000 980.000000"
 preserveAspectRatio="xMidYMid meet">

<g transform="translate(0.000000,980.000000) scale(0.100000,-0.100000)"
fill="#000000" stroke="none">
<path d="M2930 7291 c-8 -5 -51 -11 -95 -14 -140 -9 -193 -47 -241 -173 -24
-62 -38 -44 -60 74 -17 92 -18 95 -25 57 -4 -22 -8 -68 -8 -102 -1 -94 -15
-92 -71 8 -28 51 -30 52 -30 24 0 -16 14 -59 30 -94 17 -35 30 -71 29 -80 -3
-37 4 -48 52 -81 l50 -35 -7 -58 c-5 -53 -5 -57 13 -51 10 4 24 12 32 18 18
14 47 -22 62 -77 6 -23 13 -48 15 -54 2 -7 13 -13 25 -13 20 0 21 -4 15 -45
-7 -41 -5 -45 13 -45 35 0 33 -19 -6 -68 -57 -70 -78 -102 -112 -170 -23 -46
-38 -63 -58 -68 -23 -6 -34 2 -94 67 l-68 74 -1 153 c0 152 0 152 -25 164 -18
8 -31 8 -53 -1 l-28 -12 0 -153 1 -152 -37 -33 -37 -32 5 -67 c3 -37 10 -76
16 -88 7 -16 5 -31 -11 -62 -24 -47 -27 -98 -7 -121 7 -9 17 -26 21 -39 5 -19
2 -25 -14 -29 -14 -3 -21 -13 -21 -29 0 -17 6 -23 27 -26 l27 -3 -1 -475 c-1
-593 16 -840 77 -1106 32 -138 99 -284 131 -284 13 0 13 5 -26 225 -30 177
-61 457 -74 680 -13 224 -7 933 8 948 12 12 15 13 64 15 25 2 28 6 25 30 -3
24 -7 27 -35 26 -40 -2 -42 13 -8 54 14 17 25 38 25 47 0 11 26 -7 77 -55 121
-112 155 -138 202 -149 23 -5 44 -11 46 -13 4 -3 -40 -135 -121 -367 -36 -102
-127 -298 -170 -367 -51 -82 -51 -83 10 -136 29 -25 30 -28 18 -60 -6 -19 -12
-50 -12 -69 0 -29 5 -37 35 -53 19 -10 37 -27 40 -36 3 -9 -4 -46 -15 -81 -25
-82 -25 -88 5 -145 14 -26 25 -55 25 -64 0 -26 25 -42 62 -38 31 3 33 6 38 48
4 38 9 46 28 48 34 5 48 -12 71 -88 12 -38 36 -89 55 -113 19 -24 37 -53 40
-65 4 -11 22 -32 40 -46 26 -20 37 -39 51 -90 10 -36 15 -78 12 -95 -4 -19 -2
-31 7 -34 19 -8 86 -355 86 -449 0 -50 -38 -81 -150 -119 -80 -27 -102 -40
-143 -81 l-48 -49 -117 7 c-112 6 -119 5 -151 -17 -39 -27 -96 -115 -112 -172
-6 -21 -14 -94 -18 -161 l-8 -123 -44 -54 c-59 -73 -180 -263 -268 -425 -79
-145 -101 -223 -101 -357 0 -94 -10 -127 -58 -184 -58 -69 -80 -119 -98 -214
-20 -109 -69 -207 -143 -289 -32 -36 -66 -80 -75 -98 -21 -40 -37 -183 -29
-250 11 -94 -37 -215 -222 -557 -80 -148 -125 -262 -125 -315 l0 -40 963 1
c529 1 1061 6 1182 10 392 14 1005 18 1230 8 121 -5 320 -12 443 -16 l222 -6
0 59 c0 159 -35 304 -120 499 -27 61 -56 144 -65 185 -38 170 -48 199 -111
329 l-66 136 -19 172 c-29 270 -55 370 -143 548 -41 83 -89 186 -106 230 -66
169 -197 332 -357 444 -50 35 -63 49 -63 70 -1 48 -36 107 -83 140 -25 17 -49
31 -54 31 -4 0 -19 24 -33 53 -24 49 -28 53 -87 72 -88 29 -116 53 -141 123
-28 75 -50 104 -110 137 -50 29 -102 35 -178 21 l-40 -8 -12 86 c-6 47 -23
116 -39 153 -30 76 -30 77 -8 316 20 213 19 248 -9 320 -13 34 -26 80 -30 101
-3 21 -18 57 -33 80 -35 52 -34 102 1 205 14 41 26 91 26 111 0 38 14 60 40
60 24 0 153 64 219 110 64 43 91 73 91 103 0 10 -31 60 -69 110 -118 157 -253
388 -237 404 3 3 53 -38 111 -91 119 -109 280 -231 370 -281 142 -78 217 -40
81 42 -122 74 -254 180 -381 308 -160 160 -263 296 -210 276 83 -30 226 -42
263 -22 38 20 26 54 -23 64 -89 18 -202 46 -229 57 l-29 11 32 27 c29 25 31
29 21 57 -9 28 -6 39 35 110 50 89 81 177 95 273 6 42 17 73 32 92 13 15 42
51 66 80 23 28 42 62 42 75 0 13 -19 44 -44 71 -24 27 -53 69 -66 94 -37 74
-85 124 -150 159 -60 32 -62 34 -54 65 4 17 8 51 8 76 1 44 0 45 -32 48 -25 3
-38 12 -57 41 -33 53 -101 106 -168 132 -62 24 -62 28 -16 88 28 35 23 43 -15
24 -32 -15 -35 -15 -64 6 -34 24 -32 23 -52 12z"/>
</g>
</svg>
